<svg width="100" height="100" viewBox="0 0 100 100" fill="none" xmlns="http://www.w3.org/2000/svg">
<rect x="2.49999" y="2.50002" width="95" height="95" fill="#333333" stroke="#222222" stroke-width="5"/>
<path fill-rule="evenodd" clip-rule="evenodd" d="M42.4436 94.4437L5.55634 57.5563C5.19019 55.2581 4.99999 52.9013 4.99999 50.5C4.99999 48.5799 5.1216 46.6883 5.35752 44.8323C5.36677 44.7596 5.3762 44.6869 5.3858 44.6142L43.6142 6.3858C45.54 6.13133 47.5047 6 49.5 6C51.036 6 52.5539 6.07783 54.0499 6.22975C54.1168 6.23655 54.1837 6.24349 54.2506 6.25059L93.7494 45.7494C93.816 46.3765 93.8695 47.0075 93.9097 47.6421C93.9696 48.5871 94 49.54 94 50.5C94 75.0767 74.0767 95 49.5 95C47.0987 95 44.7418 94.8098 42.4436 94.4437Z" fill="#6D6D6D"/>
<path fill-rule="evenodd" clip-rule="evenodd" d="M56.5563 6.55637L93.4436 43.4437C93.8098 45.7419 94 48.0987 94 50.5C94 52.4201 93.8784 54.3117 93.6425 56.1677C93.6332 56.2405 93.6238 56.3132 93.6142 56.3858L55.3858 94.6142C53.46 94.8687 51.4953 95 49.5 95C47.9639 95 46.4461 94.9222 44.9501 94.7703C44.8832 94.7635 44.8163 94.7565 44.7494 94.7494L5.25059 55.2506C5.18403 54.6235 5.13051 53.9925 5.09028 53.3579C5.03039 52.413 4.99999 51.46 4.99999 50.5C4.99999 25.9233 24.9233 6.00001 49.5 6.00002C51.9013 6.00002 54.2581 6.19021 56.5563 6.55637Z" fill="#6D6D6D"/>
<path fill-rule="evenodd" clip-rule="evenodd" d="M48.7305 38.1636C38.7769 43.4595 25.7506 51.4699 8.96953 62.8933L5.03047 57.1067C21.9199 45.6096 35.1778 37.4452 45.4425 31.9838C55.6121 26.573 63.1535 23.643 68.514 22.9303C71.2025 22.5728 73.768 22.7118 75.904 23.7843C78.2227 24.9485 79.5423 26.96 80.0455 29.2384C80.5145 31.3617 80.2831 33.6892 79.7635 35.9342C79.2334 38.2244 78.3357 40.7093 77.2113 43.2744C72.7516 53.4482 64.0446 66.375 56.6136 76.5883C52.8696 81.734 49.398 86.2603 46.8624 89.5002C45.594 91.1208 44.5586 92.4212 43.8389 93.3182C43.479 93.7667 43.1979 94.1145 43.006 94.3511C42.91 94.4695 42.8364 94.56 42.7863 94.6215L42.729 94.6917L42.7139 94.7102L42.7098 94.7152C42.7087 94.7165 42.708 94.7174 40 92.5C37.292 90.2826 37.2921 90.2826 37.2925 90.282L37.2954 90.2785L37.3079 90.2631L37.3601 90.1992C37.4067 90.142 37.4768 90.0558 37.5692 89.942C37.7538 89.7143 38.0273 89.3759 38.3792 88.9373C39.0832 88.06 40.1008 86.782 41.3498 85.186C43.8488 81.9929 47.269 77.5337 50.9533 72.4699C58.3789 62.2641 66.6747 49.8754 70.8003 40.4641C71.8222 38.1328 72.5448 36.0795 72.9437 34.3557C73.3532 32.5867 73.3596 31.4244 73.2103 30.7481C73.0951 30.2268 72.9402 30.1289 72.763 30.04C72.4032 29.8593 71.4516 29.6013 69.4366 29.8692C65.3901 30.4072 58.7791 32.8171 48.7305 38.1636Z" fill="#333333"/>
<path d="M91.5 40.5C-43.1821 132.182 59 8.50001 59 8.50001" stroke="#333333" stroke-width="7"/>
<path d="M73.6249 65C73.1074 65 72.6754 64.6051 72.629 64.0897L71.0571 46.6338C71.0223 46.2471 70.7667 45.9155 70.4016 45.7833L65.636 44.0572C65.2402 43.9139 64.9766 43.538 64.9766 43.117V39.8262C64.9766 39.2739 65.4243 38.8262 65.9766 38.8262H86.0195C86.5718 38.8262 87.0195 39.2739 87.0195 39.8262V43.1171C87.0195 43.538 86.756 43.9139 86.3603 44.0573L81.598 45.7833C81.2331 45.9155 80.9777 46.247 80.9428 46.6335L79.3673 64.0899C79.3208 64.6053 78.8888 65 78.3713 65H73.6249Z" fill="white"/>
<path d="M63.9043 56.9844C63.9043 58.2852 63.6582 59.4277 63.166 60.4121C62.6738 61.3965 62.0117 62.211 61.1797 62.8555C60.1953 63.6289 59.1113 64.1797 57.9277 64.5078C56.7559 64.836 55.2617 65 53.4453 65H43.9687C43.4165 65 42.9687 64.5523 42.9687 64V39.8262C42.9687 39.2739 43.4165 38.8262 43.9687 38.8262H52.2148C54.1367 38.8262 55.5898 38.9024 56.5742 39.0547C57.5703 39.1953 58.5019 39.5 59.3691 39.9688C60.3066 40.4727 61.0039 41.1465 61.4609 41.9902C61.9297 42.834 62.1641 43.8067 62.1641 44.9082C62.1641 46.1856 61.8418 47.3223 61.1973 48.3184C60.5755 49.2971 59.7161 50.0213 58.619 50.4909C58.5837 50.506 58.5605 50.5407 58.5605 50.5791V50.5791C58.5605 50.6241 58.5922 50.6629 58.6362 50.6725C60.2182 51.018 61.4879 51.7099 62.4453 52.7481C63.418 53.791 63.9043 55.2031 63.9043 56.9844ZM55.4844 46.2266C55.4844 45.8047 55.373 45.3711 55.1504 44.9258C54.9394 44.4805 54.6055 44.1582 54.1484 43.959C53.7148 43.7715 53.1992 43.6719 52.6016 43.6602C52.0156 43.6367 51.1367 43.625 49.9648 43.625V43.625C49.7124 43.625 49.5078 43.8296 49.5078 44.082V48.336C49.5078 48.7922 49.8777 49.1621 50.334 49.1621V49.1621C51.459 49.1621 52.2441 49.1504 52.6894 49.127C53.1465 49.1035 53.6152 48.9805 54.0957 48.7578C54.623 48.5117 54.9863 48.1719 55.1855 47.7383C55.3848 47.3047 55.4844 46.8008 55.4844 46.2266ZM57.1367 56.8613C57.1367 56.0527 56.9726 55.4199 56.6445 54.9629C56.3164 54.5059 55.8242 54.1602 55.168 53.9258C54.7695 53.7735 54.2187 53.6914 53.5156 53.6797C52.8705 53.6578 51.8242 54.7938 50.7351 54.9461C50.588 54.9667 50.4475 54.8931 50.3582 54.7745V54.7745C50.0853 54.4118 49.5078 54.6048 49.5078 55.0587V58.8689C49.5078 59.318 50.0703 59.5203 50.3563 59.174V59.174C50.4473 59.0638 50.5837 58.998 50.7263 59.0072C52.2606 59.1057 52.7837 60.1884 53.4101 60.166C54.0664 60.1426 54.7344 59.9844 55.4141 59.6914C56.0117 59.4336 56.4453 59.0586 56.7148 58.5664C56.9961 58.0625 57.1367 57.4942 57.1367 56.8613Z" fill="white"/>
<path d="M39.0664 51.9395C39.0664 54.377 38.5332 56.5625 37.4668 58.4961C36.4004 60.418 35.0527 61.8945 33.4238 62.9258C32.0644 63.8047 30.582 64.3731 28.9766 64.6309C27.3828 64.877 25.6836 65 23.8789 65H16.6875C16.1352 65 15.6875 64.5523 15.6875 64V39.8262C15.6875 39.2739 16.1352 38.8262 16.6875 38.8262H23.8086C25.6484 38.8262 27.3711 38.9434 28.9766 39.1777C30.582 39.4121 32.0879 39.9805 33.4941 40.8828C35.2168 41.9844 36.5762 43.4727 37.5723 45.3477C38.5684 47.211 39.0664 49.4082 39.0664 51.9395ZM32.3164 51.8867C32.3164 50.1641 32.0176 48.6934 31.4199 47.4746C30.834 46.2442 29.9258 45.2832 28.6953 44.5918C27.8047 44.0996 26.8672 43.8301 25.8828 43.7832C25.0456 43.7429 27.1139 47.6368 26.8395 48.7223C26.7651 49.0164 26.3896 48.8622 26.1998 48.6255L24.042 45.9337C23.451 45.1965 22.2617 45.6144 22.2617 46.5592V57.3296C22.2617 58.2654 23.4322 58.6885 24.0305 57.9691L26.2001 55.3605C26.3901 55.1321 26.756 54.9598 26.8727 55.233C27.2976 56.2278 25.234 60.0662 26.1113 60.0254C27.1309 59.9668 28.0976 59.6504 29.0117 59.0762C30.0898 58.3965 30.9101 57.459 31.4726 56.2637C32.0351 55.0684 32.3164 53.6094 32.3164 51.8867Z" fill="white"/>
</svg>
